<?xml version="1.0" encoding="UTF-8" standalone="no"?>
<!DOCTYPE svg PUBLIC "-//W3C//DTD SVG 1.1//EN"
 "http://www.w3.org/Graphics/SVG/1.1/DTD/svg11.dtd">
<!-- Generated by graphviz version 5.0.1 (20220820.1526)
 -->
<!-- Title: Flow Pages: 1 -->
<svg width="194pt" height="208pt"
 viewBox="0.00 0.00 193.50 208.00" xmlns="http://www.w3.org/2000/svg" xmlns:xlink="http://www.w3.org/1999/xlink">
<g id="graph0" class="graph" transform="scale(1 1) rotate(0) translate(4 204)">
<title>Flow</title>
<polygon fill="white" stroke="none" points="-4,4 -4,-204 189.5,-204 189.5,4 -4,4"/>
<!-- math.sum[sum] -->
<g id="node1" class="node">
<title>math.sum[sum]</title>
<path fill="none" stroke="black" stroke-width="2" d="M108,-117C108,-117 78,-117 78,-117 72,-117 66,-111 66,-105 66,-105 66,-93 66,-93 66,-87 72,-81 78,-81 78,-81 108,-81 108,-81 114,-81 120,-87 120,-93 120,-93 120,-105 120,-105 120,-111 114,-117 108,-117"/>
<text text-anchor="middle" x="93" y="-95.9" font-family="times" font-size="12.00">sum</text>
</g>
<!-- . -->
<g id="node4" class="node">
<title>.</title>
<ellipse fill="none" stroke="black" cx="93" cy="-22" rx="18" ry="18"/>
<ellipse fill="none" stroke="black" cx="93" cy="-22" rx="22" ry="22"/>
</g>
<!-- math.sum[sum]&#45;&gt;. -->
<g id="edge3" class="edge">
<title>math.sum[sum]&#45;&gt;.</title>
<path fill="none" stroke="black" d="M93,-80.98C93,-73.15 93,-63.61 93,-54.54"/>
<polygon fill="black" stroke="black" points="96.5,-54.24 93,-44.24 89.5,-54.24 96.5,-54.24"/>
</g>
<!-- math.number_one[map] -->
<g id="node2" class="node">
<title>math.number_one[map]</title>
<path fill="none" stroke="black" stroke-width="2" d="M72,-200C72,-200 12,-200 12,-200 6,-200 0,-194 0,-188 0,-188 0,-176 0,-176 0,-170 6,-164 12,-164 12,-164 72,-164 72,-164 78,-164 84,-170 84,-176 84,-176 84,-188 84,-188 84,-194 78,-200 72,-200"/>
<text text-anchor="middle" x="42" y="-178.9" font-family="times" font-size="12.00">number_one</text>
</g>
<!-- math.number_one[map]&#45;&gt;math.sum[sum] -->
<g id="edge1" class="edge">
<title>math.number_one[map]&#45;&gt;math.sum[sum]</title>
<path fill="none" stroke="black" d="M52.82,-163.82C59.78,-152.76 68.96,-138.18 76.79,-125.75"/>
<polygon fill="black" stroke="black" points="79.83,-127.48 82.2,-117.15 73.91,-123.75 79.83,-127.48"/>
<text text-anchor="middle" x="87" y="-138" font-family="times" font-size="10.00">iterable</text>
</g>
<!-- math.number_two[map] -->
<g id="node3" class="node">
<title>math.number_two[map]</title>
<path fill="none" stroke="black" stroke-width="2" d="M173.5,-200C173.5,-200 114.5,-200 114.5,-200 108.5,-200 102.5,-194 102.5,-188 102.5,-188 102.5,-176 102.5,-176 102.5,-170 108.5,-164 114.5,-164 114.5,-164 173.5,-164 173.5,-164 179.5,-164 185.5,-170 185.5,-176 185.5,-176 185.5,-188 185.5,-188 185.5,-194 179.5,-200 173.5,-200"/>
<text text-anchor="middle" x="144" y="-178.9" font-family="times" font-size="12.00">number_two</text>
</g>
<!-- math.number_two[map]&#45;&gt;math.sum[sum] -->
<g id="edge2" class="edge">
<title>math.number_two[map]&#45;&gt;math.sum[sum]</title>
<path fill="none" stroke="black" d="M133.18,-163.82C126.22,-152.76 117.04,-138.18 109.21,-125.75"/>
<polygon fill="black" stroke="black" points="112.09,-123.75 103.8,-117.15 106.17,-127.48 112.09,-123.75"/>
<text text-anchor="middle" x="137" y="-138" font-family="times" font-size="10.00">iterable</text>
</g>
</g>
</svg>
